G04*
G04 #@! TF.GenerationSoftware,Altium Limited,Altium Designer,20.0.13 (296)*
G04*
G04 Layer_Color=32896*
%FSLAX24Y24*%
%MOIN*%
G70*
G01*
G75*
%ADD10C,0.0039*%
%ADD11C,0.0100*%
%ADD15C,0.0060*%
%ADD25R,0.0079X0.0079*%
D10*
X6087Y4664D02*
Y4764D01*
Y6964D02*
Y8164D01*
Y4764D02*
Y6964D01*
D11*
X9429Y8026D02*
G03*
X9508Y7947I79J0D01*
G01*
Y8766D02*
G03*
X9429Y8687I0J-79D01*
G01*
X10728Y7947D02*
G03*
X10807Y8026I0J79D01*
G01*
X10807Y8687D02*
G03*
X10728Y8766I-79J0D01*
G01*
X10827Y6728D02*
G03*
X10748Y6807I-79J0D01*
G01*
Y5988D02*
G03*
X10827Y6067I0J79D01*
G01*
X9528Y6807D02*
G03*
X9449Y6728I0J-79D01*
G01*
X9449Y6067D02*
G03*
X9528Y5988I79J0D01*
G01*
X10827Y5744D02*
G03*
X10748Y5823I-79J0D01*
G01*
Y5004D02*
G03*
X10827Y5083I0J79D01*
G01*
X9528Y5823D02*
G03*
X9449Y5744I0J-79D01*
G01*
X9449Y5083D02*
G03*
X9528Y5004I79J0D01*
G01*
X9449Y7041D02*
G03*
X9528Y6963I79J0D01*
G01*
Y7782D02*
G03*
X9449Y7703I0J-79D01*
G01*
X10748Y6963D02*
G03*
X10827Y7041I0J79D01*
G01*
Y7703D02*
G03*
X10748Y7782I-79J0D01*
G01*
X9429Y8026D02*
Y8041D01*
Y8671D02*
Y8687D01*
X10807Y8026D02*
Y8041D01*
X10807Y8671D02*
Y8687D01*
Y8671D02*
Y8679D01*
X10315Y8766D02*
X10728D01*
X10315Y7947D02*
X10728D01*
X9508Y8766D02*
X9921D01*
X9508Y7947D02*
X9921D01*
X10807Y8041D02*
X10807Y8671D01*
X9429Y8041D02*
Y8671D01*
X10827Y6713D02*
Y6728D01*
Y6067D02*
Y6083D01*
X9449Y6713D02*
Y6728D01*
X9449Y6067D02*
Y6083D01*
Y6075D02*
Y6083D01*
X9528Y5988D02*
X9941D01*
X9528Y6807D02*
X9941D01*
X10335Y5988D02*
X10748D01*
X10335Y6807D02*
X10748D01*
X9449Y6083D02*
X9449Y6713D01*
X10827Y6083D02*
Y6713D01*
Y5728D02*
Y5744D01*
Y5083D02*
Y5098D01*
X9449Y5728D02*
Y5744D01*
X9449Y5083D02*
Y5098D01*
Y5091D02*
Y5098D01*
X9528Y5004D02*
X9941D01*
X9528Y5823D02*
X9941D01*
X10335Y5004D02*
X10748D01*
X10335Y5823D02*
X10748D01*
X9449Y5098D02*
X9449Y5728D01*
X10827Y5098D02*
Y5728D01*
X10827Y7057D02*
Y7687D01*
X9449Y7057D02*
X9449Y7687D01*
X10335Y7782D02*
X10748D01*
X10335Y6963D02*
X10748D01*
X9528Y7782D02*
X9941D01*
X9528Y6963D02*
X9941D01*
X9449Y7049D02*
Y7057D01*
Y7041D02*
Y7057D01*
X9449Y7687D02*
Y7703D01*
X10827Y7041D02*
Y7057D01*
Y7687D02*
Y7703D01*
D15*
X10424Y4033D02*
Y4392D01*
X9852Y4407D02*
Y4813D01*
X10424D01*
X9852Y3612D02*
Y4018D01*
Y3612D02*
X10424D01*
D25*
X6397Y4524D02*
D03*
M02*
