G04*
G04 #@! TF.GenerationSoftware,Altium Limited,Altium Designer,20.0.13 (296)*
G04*
G04 Layer_Color=2752767*
%FSLAX24Y24*%
%MOIN*%
G70*
G01*
G75*
%ADD10C,0.0039*%
%ADD11C,0.0020*%
%ADD12C,0.0027*%
D10*
X3543Y4626D02*
G03*
X3937Y4626I197J197D01*
G01*
Y8169D02*
G03*
X3543Y8169I-197J-197D01*
G01*
X3937Y4626D02*
Y8169D01*
X3543Y4626D02*
Y8169D01*
X15748Y1181D02*
Y10630D01*
X1181Y11811D02*
X14567D01*
X1181Y0D02*
X14567D01*
X0Y1181D02*
Y10630D01*
D11*
X491Y2306D02*
Y2466D01*
X651D01*
Y2306D01*
X491D01*
Y3306D02*
Y3466D01*
X651D01*
Y3306D01*
X491D01*
Y4306D02*
Y4466D01*
X651D01*
Y4306D01*
X491D01*
Y5306D02*
Y5466D01*
X651D01*
Y5306D01*
X491D01*
Y6306D02*
Y6466D01*
X651D01*
Y6306D01*
X491D01*
Y7306D02*
Y7466D01*
X651D01*
Y7306D01*
X491D01*
Y8306D02*
Y8466D01*
X651D01*
Y8306D01*
X491D01*
Y9306D02*
Y9466D01*
X651D01*
Y9306D01*
X491D01*
D12*
X5887Y7510D02*
G03*
X5887Y7510I-80J0D01*
G01*
X9017Y8356D02*
G03*
X9017Y8356I-80J0D01*
G01*
X9037Y5315D02*
G03*
X9037Y5315I-80J0D01*
G01*
X3820Y8957D02*
G03*
X3820Y8957I-80J0D01*
G01*
M02*
